<svg xmlns="http://www.w3.org/2000/svg" viewBox="0 0 168 48">
  <g id="icon-logoIcon_Frame 3">
    <path id="icon-logoIcon_icon_logo" d="M118.637 31.0949C116.989 29.1458 116.107 26.6638 116.155 24.112C116.096 21.3241 117.142 18.626 119.064 16.6063C120.06 15.6511 121.238 14.9058 122.527 14.4146C123.817 13.9235 125.192 13.6965 126.571 13.7472C127.913 13.7434 129.242 14.0071 130.481 14.5226C131.72 15.0382 132.844 15.7954 133.787 16.75L133.876 16.8383L131.257 19.367L131.175 19.2844C129.936 18.1048 128.283 17.46 126.573 17.4894C125.706 17.455 124.841 17.5955 124.029 17.9025C123.218 18.2095 122.477 18.6766 121.85 19.2761C120.623 20.5802 119.961 22.3164 120.008 24.1063C120.035 27.2247 121.775 30.5604 126.573 30.5604C128.359 30.5516 130.075 29.8594 131.368 28.6257L131.455 28.5382L134.125 31.2394L134.039 31.3221C133.05 32.2796 131.881 33.031 130.599 33.5324C129.317 34.0339 127.949 34.2755 126.573 34.2431C123.219 34.2464 120.476 33.156 118.637 31.0949ZM44.721 31.1139C43.0762 29.1568 42.2 26.6679 42.256 24.112C42.256 19.1217 45.4199 13.7513 52.3664 13.7513C53.6909 13.7092 55.0102 13.9351 56.2452 14.4154C57.4802 14.8958 58.6055 15.6208 59.5533 16.5468C61.4778 18.5772 62.5192 21.2873 62.4496 24.0839C62.4729 26.6305 61.5974 29.1038 59.9771 31.0685C59.0205 32.1258 57.8425 32.9591 56.527 33.5092C55.2115 34.0592 53.7909 34.3123 52.3664 34.2505C50.9405 34.314 49.5178 34.0659 48.1975 33.5236C46.8772 32.9814 45.6908 32.1579 44.721 31.1106V31.1139ZM47.9494 19.0448C47.3197 19.734 46.8328 20.541 46.5167 21.4194C46.2007 22.2978 46.0618 23.2301 46.108 24.1624C46.1907 27.2966 47.8775 30.6463 52.3673 30.6463C56.876 30.6463 58.5422 27.2834 58.5976 24.136C58.6814 22.2502 58.0135 20.4081 56.7405 19.0143C56.1659 18.4489 55.4811 18.0077 54.7288 17.718C53.9765 17.4282 53.1727 17.2961 52.3673 17.3299C51.5532 17.2959 50.7409 17.4303 49.9813 17.7248C49.2216 18.0194 48.531 18.4677 47.9527 19.0416L47.9494 19.0448ZM112.065 33.8474C111.83 33.8475 111.599 33.7939 111.389 33.6907C111.178 33.5874 110.994 33.4373 110.851 33.2518L101.114 20.987V33.8474H97.2053V14.1792H99.3283C99.6544 14.1793 99.9761 14.2545 100.269 14.3989C100.561 14.5433 100.816 14.753 101.014 15.0119L109.688 25.9897V14.152H113.596V33.8474H112.065ZM38.1933 33.8474C37.9591 33.8474 37.728 33.7937 37.5178 33.6905C37.3076 33.5872 37.1238 33.4372 36.9807 33.2518L27.2436 20.987V33.8474H23.3354V14.1792H25.4585C25.7846 14.1791 26.1064 14.2542 26.3988 14.3986C26.6912 14.543 26.9463 14.7529 27.1445 15.0119L35.8184 25.9897V14.152H39.7257V33.8474H38.1933ZM144.566 33.8416C137.71 33.8416 135.825 31.2155 135.825 24.259C135.825 24.1764 135.825 24.0938 135.825 24.0178V23.9997C135.825 23.9171 135.825 23.8403 135.825 23.7577C135.825 16.7971 137.708 14.1701 144.566 14.1701H152.017V17.6017H144.654C142.844 17.6017 141.478 17.9222 140.645 18.8722C139.954 19.8342 139.59 20.9923 139.606 22.1765H151.378V25.8394H139.606C139.591 27.0236 139.955 28.1816 140.646 29.1437C141.479 30.0929 142.844 30.4142 144.655 30.4142H152.017V33.8449L144.566 33.8416ZM91.312 33.8334L89.6756 30.1714H79.5759L81.2157 26.5126H88.0961L84.7026 18.7384L86.7537 14.166L95.5755 33.8342L91.312 33.8334ZM15.9825 33.8334V14.1602H19.8651V33.8284L15.9825 33.8334ZM73.5183 33.8276H72.3105C71.9014 33.8277 71.501 33.7093 71.1577 33.4866C70.8145 33.2639 70.5432 32.9465 70.3767 32.5728L62.1208 14.166H66.4941L72.921 29.1941L79.3487 14.166H83.722L75.4612 32.5777C75.2939 32.9501 75.0227 33.2662 74.6801 33.4881C74.3374 33.71 73.938 33.8281 73.5298 33.8284L73.5183 33.8276Z" fill="#0099F2" />
  </g>
</svg>
